<mxfile host="Electron" agent="Mozilla/5.0 (Windows NT 10.0; Win64; x64) AppleWebKit/537.36 (KHTML, like Gecko) draw.io/28.1.2 Chrome/138.0.7204.243 Electron/37.4.0 Safari/537.36" version="28.1.2">
  <diagram name="Page-1" id="s_k5vBGZH5ApsBM22Em6">
    <mxGraphModel dx="863" dy="741" grid="1" gridSize="10" guides="1" tooltips="1" connect="1" arrows="1" fold="1" page="1" pageScale="1" pageWidth="827" pageHeight="1169" math="0" shadow="0">
      <root>
        <mxCell id="0" />
        <mxCell id="1" parent="0" />
        <mxCell id="7ivoVW_f_Q4k73Q7kcZO-30" style="edgeStyle=orthogonalEdgeStyle;rounded=0;orthogonalLoop=1;jettySize=auto;html=1;exitX=0.5;exitY=1;exitDx=0;exitDy=0;entryX=0.5;entryY=0;entryDx=0;entryDy=0;endArrow=none;endFill=0;strokeWidth=4;shadow=0;fontSize=15;verticalAlign=middle;fontStyle=1;fontFamily=Lucida Console;" edge="1" parent="1" source="7ivoVW_f_Q4k73Q7kcZO-31" target="7ivoVW_f_Q4k73Q7kcZO-37">
          <mxGeometry relative="1" as="geometry" />
        </mxCell>
        <mxCell id="7ivoVW_f_Q4k73Q7kcZO-31" value="VMobile" style="rounded=0;whiteSpace=wrap;html=1;strokeWidth=4;shadow=0;fontSize=15;verticalAlign=middle;fontStyle=1;fontFamily=Lucida Console;" vertex="1" parent="1">
          <mxGeometry x="70" y="110" width="120" height="60" as="geometry" />
        </mxCell>
        <mxCell id="7ivoVW_f_Q4k73Q7kcZO-32" value="" style="edgeStyle=orthogonalEdgeStyle;rounded=0;orthogonalLoop=1;jettySize=auto;html=1;strokeWidth=4;shadow=0;fontSize=15;verticalAlign=middle;fontStyle=1;fontFamily=Lucida Console;" edge="1" parent="1" source="7ivoVW_f_Q4k73Q7kcZO-33" target="7ivoVW_f_Q4k73Q7kcZO-37">
          <mxGeometry relative="1" as="geometry" />
        </mxCell>
        <mxCell id="7ivoVW_f_Q4k73Q7kcZO-33" value="BlueMobile" style="rounded=0;whiteSpace=wrap;html=1;strokeWidth=4;shadow=0;fontSize=15;verticalAlign=middle;fontStyle=1;fontFamily=Lucida Console;" vertex="1" parent="1">
          <mxGeometry x="230" y="110" width="120" height="60" as="geometry" />
        </mxCell>
        <mxCell id="7ivoVW_f_Q4k73Q7kcZO-34" style="edgeStyle=orthogonalEdgeStyle;rounded=0;orthogonalLoop=1;jettySize=auto;html=1;exitX=0.5;exitY=1;exitDx=0;exitDy=0;endArrow=none;endFill=0;strokeWidth=4;shadow=0;fontSize=15;verticalAlign=middle;fontStyle=1;fontFamily=Lucida Console;" edge="1" parent="1" source="7ivoVW_f_Q4k73Q7kcZO-35" target="7ivoVW_f_Q4k73Q7kcZO-37">
          <mxGeometry relative="1" as="geometry" />
        </mxCell>
        <mxCell id="7ivoVW_f_Q4k73Q7kcZO-35" value="ArrowMobile" style="rounded=0;whiteSpace=wrap;html=1;strokeWidth=4;shadow=0;fontSize=15;verticalAlign=middle;fontStyle=1;fontFamily=Lucida Console;" vertex="1" parent="1">
          <mxGeometry x="390" y="110" width="120" height="60" as="geometry" />
        </mxCell>
        <mxCell id="7ivoVW_f_Q4k73Q7kcZO-36" value="" style="edgeStyle=orthogonalEdgeStyle;rounded=0;orthogonalLoop=1;jettySize=auto;html=1;strokeWidth=4;shadow=0;fontSize=12;verticalAlign=middle;fontStyle=1;fontFamily=Lucida Console;" edge="1" parent="1" source="7ivoVW_f_Q4k73Q7kcZO-37" target="7ivoVW_f_Q4k73Q7kcZO-39">
          <mxGeometry relative="1" as="geometry" />
        </mxCell>
        <mxCell id="7ivoVW_f_Q4k73Q7kcZO-37" value="Data Processing&lt;div&gt;&amp;amp;&lt;br&gt;Formating&lt;/div&gt;" style="whiteSpace=wrap;html=1;rounded=0;strokeWidth=4;shadow=0;fontSize=12;verticalAlign=middle;fontStyle=1;fontFamily=Lucida Console;" vertex="1" parent="1">
          <mxGeometry x="230" y="290" width="120" height="60" as="geometry" />
        </mxCell>
        <mxCell id="7ivoVW_f_Q4k73Q7kcZO-38" value="" style="edgeStyle=orthogonalEdgeStyle;rounded=0;orthogonalLoop=1;jettySize=auto;html=1;strokeWidth=4;shadow=0;fontSize=15;verticalAlign=middle;fontStyle=1;fontFamily=Lucida Console;" edge="1" parent="1" source="7ivoVW_f_Q4k73Q7kcZO-39" target="7ivoVW_f_Q4k73Q7kcZO-40">
          <mxGeometry relative="1" as="geometry" />
        </mxCell>
        <mxCell id="7ivoVW_f_Q4k73Q7kcZO-39" value="Master Record&lt;div&gt;Combined Tables&lt;/div&gt;" style="whiteSpace=wrap;html=1;rounded=0;strokeWidth=4;shadow=0;fontSize=12;verticalAlign=middle;fontStyle=1;fontFamily=Lucida Console;" vertex="1" parent="1">
          <mxGeometry x="230" y="400" width="120" height="60" as="geometry" />
        </mxCell>
        <mxCell id="7ivoVW_f_Q4k73Q7kcZO-55" style="edgeStyle=orthogonalEdgeStyle;rounded=0;orthogonalLoop=1;jettySize=auto;html=1;exitX=1;exitY=0.5;exitDx=0;exitDy=0;endArrow=none;endFill=0;strokeWidth=4;shadow=0;fontSize=15;verticalAlign=middle;fontStyle=1;fontFamily=Lucida Console;" edge="1" parent="1">
          <mxGeometry relative="1" as="geometry">
            <mxPoint x="519.9999999999998" y="540.1576923076922" as="targetPoint" />
            <mxPoint x="350" y="539.85" as="sourcePoint" />
            <Array as="points">
              <mxPoint x="435" y="539.85" />
            </Array>
          </mxGeometry>
        </mxCell>
        <mxCell id="7ivoVW_f_Q4k73Q7kcZO-40" value="Master record Cleaning" style="whiteSpace=wrap;html=1;rounded=0;strokeWidth=4;shadow=0;fontSize=15;verticalAlign=middle;fontStyle=1;fontFamily=Lucida Console;" vertex="1" parent="1">
          <mxGeometry x="230" y="510" width="120" height="60" as="geometry" />
        </mxCell>
        <mxCell id="7ivoVW_f_Q4k73Q7kcZO-42" style="edgeStyle=orthogonalEdgeStyle;rounded=0;orthogonalLoop=1;jettySize=auto;html=1;exitX=0.5;exitY=1;exitDx=0;exitDy=0;entryX=0.5;entryY=0;entryDx=0;entryDy=0;endArrow=none;endFill=0;strokeWidth=4;shadow=0;fontSize=15;verticalAlign=middle;fontStyle=1;fontFamily=Lucida Console;" edge="1" parent="1" source="7ivoVW_f_Q4k73Q7kcZO-43" target="7ivoVW_f_Q4k73Q7kcZO-49">
          <mxGeometry relative="1" as="geometry" />
        </mxCell>
        <mxCell id="7ivoVW_f_Q4k73Q7kcZO-43" value="Usage W1" style="rounded=0;whiteSpace=wrap;html=1;strokeWidth=4;shadow=0;fontSize=15;verticalAlign=middle;fontStyle=1;fontFamily=Lucida Console;" vertex="1" parent="1">
          <mxGeometry x="560" y="110" width="120" height="60" as="geometry" />
        </mxCell>
        <mxCell id="7ivoVW_f_Q4k73Q7kcZO-44" value="" style="edgeStyle=orthogonalEdgeStyle;rounded=0;orthogonalLoop=1;jettySize=auto;html=1;strokeWidth=4;shadow=0;fontSize=15;verticalAlign=middle;fontStyle=1;fontFamily=Lucida Console;" edge="1" parent="1" source="7ivoVW_f_Q4k73Q7kcZO-45" target="7ivoVW_f_Q4k73Q7kcZO-49">
          <mxGeometry relative="1" as="geometry" />
        </mxCell>
        <mxCell id="7ivoVW_f_Q4k73Q7kcZO-45" value="Usuge W2" style="rounded=0;whiteSpace=wrap;html=1;strokeWidth=4;shadow=0;fontSize=15;verticalAlign=middle;fontStyle=1;fontFamily=Lucida Console;" vertex="1" parent="1">
          <mxGeometry x="720" y="110" width="120" height="60" as="geometry" />
        </mxCell>
        <mxCell id="7ivoVW_f_Q4k73Q7kcZO-46" style="edgeStyle=orthogonalEdgeStyle;rounded=0;orthogonalLoop=1;jettySize=auto;html=1;exitX=0.5;exitY=1;exitDx=0;exitDy=0;endArrow=none;endFill=0;strokeWidth=4;shadow=0;fontSize=15;verticalAlign=middle;fontStyle=1;fontFamily=Lucida Console;" edge="1" parent="1" source="7ivoVW_f_Q4k73Q7kcZO-47" target="7ivoVW_f_Q4k73Q7kcZO-49">
          <mxGeometry relative="1" as="geometry" />
        </mxCell>
        <mxCell id="7ivoVW_f_Q4k73Q7kcZO-47" value="City Look up" style="rounded=0;whiteSpace=wrap;html=1;strokeWidth=4;shadow=0;fontSize=15;verticalAlign=middle;fontStyle=1;fontFamily=Lucida Console;" vertex="1" parent="1">
          <mxGeometry x="880" y="110" width="120" height="60" as="geometry" />
        </mxCell>
        <mxCell id="7ivoVW_f_Q4k73Q7kcZO-48" value="" style="edgeStyle=orthogonalEdgeStyle;rounded=0;orthogonalLoop=1;jettySize=auto;html=1;strokeWidth=4;shadow=0;fontSize=15;verticalAlign=middle;fontStyle=1;fontFamily=Lucida Console;" edge="1" parent="1" source="7ivoVW_f_Q4k73Q7kcZO-49" target="7ivoVW_f_Q4k73Q7kcZO-51">
          <mxGeometry relative="1" as="geometry" />
        </mxCell>
        <mxCell id="7ivoVW_f_Q4k73Q7kcZO-49" value="&lt;font style=&quot;font-size: 12px;&quot;&gt;Data Processing&lt;/font&gt;&lt;div&gt;&lt;font style=&quot;font-size: 12px;&quot;&gt;&amp;amp;&lt;br&gt;Formatin&lt;/font&gt;g&lt;/div&gt;" style="whiteSpace=wrap;html=1;rounded=0;strokeWidth=4;shadow=0;fontSize=15;verticalAlign=middle;fontStyle=1;fontFamily=Lucida Console;" vertex="1" parent="1">
          <mxGeometry x="720" y="290" width="120" height="60" as="geometry" />
        </mxCell>
        <mxCell id="7ivoVW_f_Q4k73Q7kcZO-50" value="" style="edgeStyle=orthogonalEdgeStyle;rounded=0;orthogonalLoop=1;jettySize=auto;html=1;strokeWidth=4;shadow=0;fontSize=15;verticalAlign=middle;fontStyle=1;fontFamily=Lucida Console;" edge="1" parent="1" source="7ivoVW_f_Q4k73Q7kcZO-51" target="7ivoVW_f_Q4k73Q7kcZO-52">
          <mxGeometry relative="1" as="geometry" />
        </mxCell>
        <mxCell id="7ivoVW_f_Q4k73Q7kcZO-51" value="Location look ups" style="whiteSpace=wrap;html=1;rounded=0;strokeWidth=4;shadow=0;fontSize=15;verticalAlign=middle;fontStyle=1;fontFamily=Lucida Console;" vertex="1" parent="1">
          <mxGeometry x="720" y="400" width="120" height="60" as="geometry" />
        </mxCell>
        <mxCell id="7ivoVW_f_Q4k73Q7kcZO-54" value="" style="edgeStyle=orthogonalEdgeStyle;rounded=0;orthogonalLoop=1;jettySize=auto;html=1;strokeWidth=4;shadow=0;fontSize=15;verticalAlign=middle;fontStyle=1;fontFamily=Lucida Console;" edge="1" parent="1" source="7ivoVW_f_Q4k73Q7kcZO-52" target="7ivoVW_f_Q4k73Q7kcZO-53">
          <mxGeometry relative="1" as="geometry">
            <Array as="points">
              <mxPoint x="510" y="540" />
            </Array>
          </mxGeometry>
        </mxCell>
        <mxCell id="7ivoVW_f_Q4k73Q7kcZO-52" value="Week length&amp;nbsp;&lt;div&gt;detection&lt;/div&gt;" style="whiteSpace=wrap;html=1;rounded=0;strokeWidth=4;shadow=0;fontSize=15;verticalAlign=middle;fontStyle=1;fontFamily=Lucida Console;" vertex="1" parent="1">
          <mxGeometry x="720" y="510" width="120" height="60" as="geometry" />
        </mxCell>
        <mxCell id="7ivoVW_f_Q4k73Q7kcZO-57" value="" style="edgeStyle=orthogonalEdgeStyle;rounded=0;orthogonalLoop=1;jettySize=auto;html=1;strokeWidth=4;shadow=0;fontSize=15;verticalAlign=middle;fontStyle=1;fontFamily=Lucida Console;" edge="1" parent="1" source="7ivoVW_f_Q4k73Q7kcZO-53" target="7ivoVW_f_Q4k73Q7kcZO-56">
          <mxGeometry relative="1" as="geometry" />
        </mxCell>
        <mxCell id="7ivoVW_f_Q4k73Q7kcZO-53" value="Report Generation" style="whiteSpace=wrap;html=1;rounded=0;strokeWidth=4;shadow=0;fontSize=15;verticalAlign=middle;fontStyle=1;fontFamily=Lucida Console;" vertex="1" parent="1">
          <mxGeometry x="450" y="610" width="120" height="60" as="geometry" />
        </mxCell>
        <mxCell id="7ivoVW_f_Q4k73Q7kcZO-56" value="Weekly Report&lt;br&gt;CSV" style="whiteSpace=wrap;html=1;rounded=0;strokeWidth=4;shadow=0;fontSize=15;verticalAlign=middle;fontStyle=1;fontFamily=Lucida Console;" vertex="1" parent="1">
          <mxGeometry x="450" y="750" width="120" height="60" as="geometry" />
        </mxCell>
      </root>
    </mxGraphModel>
  </diagram>
</mxfile>
